<svg xmlns="http://www.w3.org/2000/svg" data-name="Layer 1" viewBox="0 0 3000 3000"><defs><style>  .cls-1{font-size:89.73px;stroke:#00ced3;stroke-miterlimit:10;stroke-width:8px;font-family:CharlemagneStd-Bold, Charlemagne Std;font-weight:700;letter-spacing:0.22em;}.cls-1,.cls-4{fill:#00ced3;}.cls-2{letter-spacing:0.19em;}.cls-3{letter-spacing:0.22em;}</style></defs><title>  Teal Logo</title><text class="cls-1" transform="translate(222.41 1818.25)scale(1.98 1)">  UPPERCUT <tspan class="cls-2" x="729.2">  A</tspan><tspan class="cls-3" x="809.7">  VENGER</tspan></text><g data-name="D     LPHIN"><path class="cls-4" d="M208.5 1390.6c0-29.5-1-149.2-3.5-162.3-12.8-3.3-67.9-32.1-79.7-33.4l-1-13.7c7.4 1.3 90.4 11.8 111.1 13.6 18.9 1.6 74.3 5.9 112.4 5.9 57.8 0 106.2 13.9 138.8 34.8 57.8 36.7 81 98.8 81 158.4 0 138.1-82 273.6-271.6 273.6-27.6 0-179.8 45.3-191.7 45.9L124 1696c9.2-4.2 69.2-45.5 81-50 2.5-11.1 3.5-127.6 3.5-203.6Zm56.3 57.6c0 35.4 1.5 158.4 3.5 182 21.7 11.1 41 11.8 53.8 11.8 94.3 0 184.7-73.3 184.7-212.7 0-55.6-12.8-110.6-53.8-151.2-36-35.3-95.3-48.4-141.2-48.4-11.4 0-33.1 1.3-43.4 3.9-1.5 9.8-3.5 160.4-3.5 189.2Z"/><path class="cls-4" d="M1243 1388c0-37.3-0.5-138.8-2.5-159.7-10.9-2.6-40-7.9-52.8-9.2l-1.5-13.7c12.3 1.3 55.3 2.6 85.4 2.6 33.1 0 81-1.3 90.9-2.6l-2.5 13.8c-11.8 1.3-38.5 6.6-58.3 9.2-2 21-2.5 115.2-2.5 167.6v23.6c0 85.8 211.4 2.5 225.8 58.8 0 99.3-17 118-33.4 7.4-22.3 13.8-56.3 17.8-74.6l11.9-2.6c-9.9 58.3-29.1 104.1 0 192.1L1411.9 1697c0-9.2 2.5-9.2 2.5-26.9-10.9-1.3-117.5-3.9-144.2-3.9-24.7 0-70.1 1.3-83.9 2.6l2-13.7c7.4-0.7 42-4.6 52.3-9.2 2-28.8 2.5-155.1 2.5-219.9Z"/><path class="cls-4" d="M1589.2 1420.1c0 55.6 206.9 2.5 225.8 11.9 2.6 47.4 7.2 62.7 9.2l2.5 13.8c-16.3-1.3-71.6-2.6-94.3-2.6-24.7 0-71.6 1.3-85.4 2.6l2-13.7c7.4-1.3 39.5-5.9 52.3-9.2 2-28.8 2.5-168.2 2.5-229.1v-26.2c0-20.9-0.5-140.1-2.5-162.3-9.4-4.6-41-7.9-52.8-9.2l-1.5-13.7c14.8 0 86.9-0.6 109.6-0.6 53.8 0 94.8 5.9 119 19 44 24.2 48.4 64.2 48.4 80.5 0 44.5-14.3 77.9-34.1 104.1-32.6 43.2-85.9 60.9-103.7 64.2l1.5-16.4c17.8-5.9 77.5-29.5 77.5-128.3 0-39.9-14.8-72.7-40-89-16.3-10.5-42-14.4-63.7-14.4-2 19-2.5 111.9-2.5 168.2Z"/><path class="cls-4" d="M1849.4 1393.9c0-20.9-0.5-144-2.5-165.6-8.9-2.6-39.5-7.9-51.8-9.2l-2.5-13.7c8.4 1.3 55.3 2.6 86.9 2.6 30.6 0 72.6-1.3 80.5-2.6l-2.5 13.8c-13.8 1.3-40 6.6-47.9 9.2-2 17.7-4 94.9-4 151.2v32.1c12.4 0 185.2 2.6 204.9-2v-30.1c0-51.1 0-134.8-3-151.2-8.4-2.6-34.6-7.9-48.9-9.2l-2.5-13.7c8.4 1.3 54.3 2.6 84.9 2.6 32.1 0 73.6-1.3 82.5-2.6l-3 13.8c-9.9 1.3-36 6.6-50.4 9.2-2.5 13.1-3.5 147.9-3.5 165.6v45.8c0 75.9 1 183.9 4.4 206.2 9.9 2.6 40 8.5 49.9 9.2l2.5 13.8c-9.4-1.3-59.7-2.6-83-2.6-21.2 0-67.6 1.3-84.4 2.6l2.5-13.7c7.4-0.7 40-6.5 48.9-9.2 3-22.3 3-105.4 3-174.8v-38c-23.2-198 13.1-204.9 15.1v22.9c0 66.8 2 150.6 4 174.8 13.3 3.9 38 8.5 47.9 9.2l2.5 13.8c-10.4-1.3-59.3-2.6-80.5-2.6-25.7 0-72.1 1.3-86.9 2.6l3-13.7c11.4-0.7 42-6.5 51.4-9.2 2-30.8 2.5-140.7 2.5-190.5Z"/><path class="cls-4" d="M2384.2 1438.4c0 85.1 194.4 2.5 207.5 12.4 3.9 42 7.9 51.9 9.2l2.5 13.8c-10.9-1.3-62.2-2.6-92.8-2.6-16.8 0-62.2 1.3-77 2.6l2-13.7c8.4-0.7 42-6.5 52.3-9.2 2-27.5 2.5-148.6 2.5-212.7v-38.6c0-21.6-0.5-144-2.5-166.3-9.9-2.6-42.5-7.9-51.8-9.2l-2.5-13.7c9.4 1.3 54.8 2.6 93.8 2.6 25.2 0 67.7-1.3 76-2.6l-2.5 13.8c-9.9 1.3-34.1 6.6-51.8 9.2-2 13.1-2.5 89-2.5 169.5Z"/><path class="cls-4" d="M2484.5 1208c27.7-1.3 74.1-2 112.6-4.6 10.9 22.3 110.1 187.2 118.5 199 12.8 18.3 91.4 144.7 107.2 162.3 0-72.7-0.5-302.4-10.4-336.4-9.9-2.6-36-7.9-49.9-9.2l-2.5-13.7c9.4 1.3 62.7 2.6 73.6 2.6s51.9-1.3 62.2-2.6l-2 13.8c-6.4 1.3-24.2 6.6-37.5 9.2-5.9 25.5-8.4 117.8-9.4 138.8-1.5 30.8-8.9 256.3 24 381.6-14.8-18.3-184-279.5-195.3-296.5-6.9-9.8-100.7-161.7-117-186.6-1.5 13.1 4.4 356.8 10.9 380.3 7.4 3.3 44.4 7.9 53.8 9.2l1.5 13.8c-8.9-1.3-60.2-2.6-73.1-2.6-14.3 0-52.8 1.3-67.2 2.6l1.5-13.7c13.8-2.6 29.6-4.6 41-9.2 8.4-27.5 13.8-394.7 13.8-416.3-11.4-3.3-35.5-6.5-54.3-7.8Z"/></g><g data-name="thicc boi ground up"><path class="cls-4" d="M1075.7 1339l42.7-74h-86.7l42.2 73.2Z"/><path class="cls-4" d="M797.3 1325.6c1.3-2.5 1.9-4.5 1.5-5.5-0.7-2.1-4.1-5.5-7.2-8.6l-25.8-25.8 34.8-8a94.4 94.4 0 0 1 21-2.5c28.6 0 47.3 14.6 58.5 23.4 1.2 2.3 1.8 3.3 2.6 2.6 0 5.3-0.1 7.9-0.1a484.9 484.9 0 0 1 99.5 10.3L964 1265.1H762.1l-76.8 133 9 15.6q9.7-11.5 20.1-22.3C751.3 1353.3 784.9 1332.5 797.3 1325.6Z"/><path class="cls-4" d="M940.6 1573l5.2-9-24.2-1.7 20.2-28.6c5.1-7.2 10.2-29.8 6.8-48.3-5.7-0.6-13.2-1-22.1-1-37.9 0-98.3 8.5-161.6 51.5l21.5 37.2Z"/><path class="cls-4" d="M657 1465q8.6-13.9 18.2-27l-14.9-25.9 101.4-175.6H964.4l45.9 79.4a404.6 404.6 0 0 1 41.3 13l-70.3-121.7H744.8L626.5 1412.1Z"/><path class="cls-4" d="M1030.8 1495.8c-7.6 16.8-17.4 32.3-28.2 44.2-7.6 8.4-14.6 14.1-21 17.9l-17.2 29.9H761.7l-20-34.7q-11.2 9.1-22.4 19.8l25.5 44.2H981.4l69-119.5Z"/><polygon class="cls-4" points="694.5 1265 608.6 1265 651.5 1339.5 694.5 1265"/><polygon class="cls-4" points="863.5 1706.6 906.7 1631.6 820.2 1631.6 863.5 1706.6"/><path data-name="outlined solid dolph" class="cls-4" d="M667.4 1701.2l-4-4.8c-6.9-8.4-15.5-11.3-24.6-14.5-6.6-2.3-13.5-4.7-19.3-9.3-10.2 4.6-28.1 4.7-48.4 4.9-22.3-47.5-61.9 7l-10.2 4.7 3.2-10.8c5.5-18.6 26.5-34.1 62.4-46.1a333.6 333.6 0 0 1 47.3-11.8 448.3 448.3 0 0 1 47.2-129.7 424 424 0 0 1 66.1-89.2c40.1-41.4 75.7-61.3 82.8-65.1 11.5-17.9 3.4-26-5.9-35.4l-7.1-7.1 9-2.1c34-7.8 54 7.9 67.2 18.2 2.9 2.3 5.4 4.3 7.8 5.8 66.3-1.8 134.8 11 188.3 35.3 28.7 13 51.7 28.7 68.4 46.6 17.8 19 27.9 40 30.2 62.5l30.6 20.9a8.7 8.7 0 0 0 1.3 1c4.5 3 6.6 6.6 3.6 15.3-3.8 10.9-18.1 9.7-22.8 9.3-4.2-0.3-14.2-3.7-30.1-9.3-9.9-3.4-21.2-7.3-24.9-8-6.5-1.1-67.5-6.5-102.2-9.5-7.4 19.2-17.9 36.8-29.7 49.9-12.2 13.5-24.6 20.8-34.2 20.1l-9.1-0.7 5.2-7.4c8.9-12.5 15-46.7 6.4-70.1-28.3-4.5-185.2-20.1-309.5 159.3 9.7 8.5 19.5 17.4 24.9 27.3 6.9 12.6 5.5 25.3-4.2 37.6Z"/></g></svg>