<svg id="Layer_1" data-name="Layer 1" xmlns="http://www.w3.org/2000/svg" viewBox="0 0 3000 3000"><defs><style>.cls-1{font-size:89.73px;stroke:#fff;stroke-miterlimit:10;stroke-width:8px;font-family:CharlemagneStd-Bold, Charlemagne Std;font-weight:700;letter-spacing:0.22em;}.cls-1,.cls-4{fill:#fff;}.cls-2{letter-spacing:0.19em;}.cls-3{letter-spacing:0.22em;}</style></defs><title>White Logo</title><text class="cls-1" transform="translate(222.41 1818.25) scale(1.98 1)">UPPERCUT <tspan class="cls-2" x="729.15" y="0">A</tspan><tspan class="cls-3" x="809.73" y="0">VENGER</tspan></text><g id="D_LPHIN" data-name="D     LPHIN"><path class="cls-4" d="M208.51,1390.64c0-29.46-1-149.24-3.46-162.34-12.84-3.27-67.89-32.06-79.75-33.37l-1-13.75c7.41,1.31,90.43,11.81,111.1,13.56,18.86,1.6,74.33,5.94,112.35,5.94,57.77,0,106.16,13.87,138.75,34.82,57.77,36.66,81,98.84,81,158.41,0,138.12-82,273.61-271.59,273.61-27.65,0-179.85,45.28-191.71,45.93L124,1696c9.17-4.19,69.17-45.46,81-50,2.47-11.13,3.46-127.64,3.46-203.58Zm56.29,57.6c0,35.35,1.48,158.41,3.46,182,21.73,11.13,41,11.78,53.82,11.78,94.32,0,184.68-73.31,184.68-212.74,0-55.64-12.84-110.62-53.82-151.21-36-35.35-95.3-48.44-141.23-48.44-11.36,0-33.08,1.31-43.45,3.93-1.48,9.82-3.46,160.37-3.46,189.17Z"/><path class="cls-4" d="M1243,1388c0-37.31-.49-138.77-2.47-159.72-10.86-2.62-40-7.86-52.84-9.16l-1.48-13.75c12.34,1.31,55.31,2.62,85.43,2.62,33.08,0,81-1.31,90.86-2.62l-2.47,13.75c-11.85,1.31-38.52,6.55-58.27,9.16-2,20.95-2.47,115.21-2.47,167.57v23.56c0,85.75.49,211.43,2.47,225.83,58.76,0,99.25-17,118-33.38,7.41-22.26,13.83-56.29,17.78-74.62l11.85-2.62c-9.88,58.26-29.15,104.11,0,192.11L1411.92,1697c0-9.16,2.47-9.22,2.47-26.9-10.86-1.31-117.52-3.93-144.19-3.93-24.69,0-70.12,1.31-83.95,2.62l2-13.75c7.41-.66,42-4.58,52.34-9.16,2-28.8,2.47-155.14,2.47-219.94Z"/><path class="cls-4" d="M1589.19,1420.09c0,55.64.49,206.85,2.47,225.83,11.85,2.62,47.4,7.2,62.71,9.16l2.47,13.75c-16.29-1.31-71.6-2.62-94.32-2.62-24.69,0-71.6,1.31-85.43,2.62l2-13.75c7.41-1.31,39.5-5.89,52.34-9.16,2-28.8,2.47-168.23,2.47-229.1v-26.18c0-20.95-.49-140.08-2.47-162.34-9.38-4.58-41-7.86-52.84-9.16l-1.48-13.75c14.81,0,86.91-.65,109.62-.65,53.82,0,94.81,5.89,119,19,43.95,24.22,48.39,64.15,48.39,80.51,0,44.51-14.32,77.9-34.07,104.08-32.59,43.2-85.92,60.88-103.7,64.15l1.48-16.36c17.78-5.89,77.53-29.46,77.53-128.3,0-39.93-14.81-72.66-40-89-16.29-10.47-42-14.4-63.7-14.4-2,19-2.47,111.93-2.47,168.23Z"/><path class="cls-4" d="M1849.42,1393.91c0-20.95-.49-144-2.47-165.61-8.89-2.62-39.5-7.86-51.85-9.16l-2.47-13.75c8.39,1.31,55.31,2.62,86.91,2.62,30.62,0,72.59-1.31,80.49-2.62l-2.47,13.75c-13.83,1.31-40,6.55-47.9,9.16-2,17.67-4,94.91-4,151.21v32.07c12.35,0,185.18,2.62,204.93-2v-30.11c0-51.06,0-134.84-3-151.21-8.39-2.62-34.57-7.86-48.89-9.16l-2.47-13.75c8.39,1.31,54.32,2.62,84.93,2.62,32.1,0,73.58-1.31,82.47-2.62l-3,13.75c-9.88,1.31-36,6.55-50.37,9.16-2.47,13.09-3.46,147.94-3.46,165.61v45.82c0,75.93,1,183.94,4.44,206.19,9.88,2.62,40,8.51,49.87,9.16l2.47,13.75c-9.38-1.31-59.75-2.62-83-2.62-21.23,0-67.65,1.31-84.44,2.62l2.47-13.75c7.41-.66,40-6.55,48.89-9.16,3-22.26,3-105.39,3-174.77v-38c-23.21.65-198,13.09-204.93,15.06v22.91c0,66.77,2,150.55,4,174.77,13.33,3.93,38,8.51,47.9,9.16l2.47,13.75c-10.37-1.31-59.26-2.62-80.49-2.62-25.68,0-72.09,1.31-86.91,2.62l3-13.75c11.36-.66,42-6.55,51.36-9.16,2-30.77,2.47-140.74,2.47-190.48Z"/><path class="cls-4" d="M2384.22,1438.42c0,85.1.49,194.41,2.47,207.5,12.35,3.93,42,7.85,51.85,9.16l2.47,13.75c-10.86-1.31-62.22-2.62-92.83-2.62-16.79,0-62.22,1.31-77,2.62l2-13.75c8.39-.66,42-6.55,52.34-9.16,2-27.49,2.47-148.59,2.47-212.74v-38.62c0-21.6-.49-144-2.47-166.26-9.88-2.62-42.47-7.86-51.85-9.16l-2.47-13.75c9.38,1.31,54.81,2.62,93.82,2.62,25.18,0,67.65-1.31,76-2.62l-2.47,13.75c-9.88,1.31-34.07,6.55-51.85,9.16-2,13.09-2.47,89-2.47,169.54Z"/><path class="cls-4" d="M2484.45,1208c27.65-1.31,74.07-2,112.59-4.58,10.86,22.26,110.12,187.21,118.51,199,12.84,18.33,91.35,144.66,107.16,162.34,0-72.66-.49-302.42-10.37-336.45-9.88-2.62-36-7.86-49.87-9.16l-2.47-13.75c9.38,1.31,62.71,2.62,73.58,2.62s51.85-1.31,62.22-2.62l-2,13.75c-6.42,1.31-24.2,6.55-37.53,9.16-5.93,25.53-8.39,117.82-9.38,138.77-1.48,30.77-8.92,256.32,24,381.61-14.81-18.33-184-279.5-195.35-296.52-6.91-9.82-100.73-161.68-117-186.56-1.48,13.09,4.44,356.75,10.86,380.31,7.41,3.27,44.44,7.85,53.82,9.16l1.48,13.75c-8.89-1.31-60.24-2.62-73.08-2.62-14.32,0-52.84,1.31-67.16,2.62l1.48-13.75c13.83-2.62,29.63-4.58,41-9.16,8.39-27.49,13.83-394.71,13.83-416.31-11.36-3.27-35.55-6.55-54.32-7.85Z"/></g><g id="thicc_boi_ground_up" data-name="thicc boi ground up"><path class="cls-4" d="M1075.67,1339l42.72-74h-86.74l42.23,73.16Z"/><path class="cls-4" d="M797.25,1325.57c1.28-2.48,1.85-4.48,1.52-5.51-.67-2.07-4.14-5.54-7.21-8.6l-25.83-25.83,34.82-8a94.35,94.35,0,0,1,21-2.47c28.6,0,47.33,14.64,58.52,23.43,1.16.92,2.26,1.77,3.28,2.55,2.64,0,5.29-.07,7.93-.07a484.85,484.85,0,0,1,99.47,10.25L964,1265.06H762.11l-76.78,133,9,15.59q9.68-11.49,20.13-22.29C751.28,1353.31,784.92,1332.52,797.25,1325.57Z"/><path class="cls-4" d="M940.56,1573l5.18-9-24.16-1.75,20.23-28.6c5.13-7.2,10.16-29.85,6.78-48.33-5.7-.56-13.18-1-22.11-1-37.87,0-98.29,8.52-161.64,51.48l21.51,37.24Z"/><path class="cls-4" d="M657,1465q8.6-13.87,18.22-27l-14.92-25.88,101.35-175.6H964.44l45.89,79.42a404.58,404.58,0,0,1,41.34,13l-70.31-121.75H744.78L626.49,1412.1Z"/><path class="cls-4" d="M1030.83,1495.79c-7.62,16.84-17.43,32.29-28.21,44.22-7.56,8.37-14.61,14.05-21,17.85l-17.23,29.85H761.68l-20-34.66q-11.21,9.09-22.41,19.77l25.5,44.17H981.35l69-119.5Z"/><polygon class="cls-4" points="694.48 1265.04 608.55 1265.04 651.51 1339.47 694.48 1265.04"/><polygon class="cls-4" points="863.47 1706.58 906.74 1631.63 820.19 1631.63 863.47 1706.58"/><path id="outlined_solid_dolph" data-name="outlined solid dolph" class="cls-4" d="M667.38,1701.18l-4-4.85c-6.95-8.38-15.53-11.33-24.61-14.48-6.65-2.29-13.49-4.66-19.35-9.28-10.19,4.57-28.1,4.74-48.44,4.94-22.28.22-47.53.47-61.87,7l-10.25,4.69,3.21-10.81c5.5-18.56,26.5-34.07,62.38-46.11a333.57,333.57,0,0,1,47.31-11.85,448.25,448.25,0,0,1,47.21-129.73,424,424,0,0,1,66.07-89.2c40.1-41.41,75.68-61.29,82.84-65.08,11.52-17.93,3.41-26-5.95-35.37l-7.1-7.1,9-2.07c34-7.8,54,7.85,67.23,18.21,2.88,2.26,5.43,4.25,7.77,5.76,66.27-1.82,134.81,11,188.29,35.29,28.67,13,51.69,28.7,68.42,46.6,17.76,19,27.91,40,30.18,62.47l30.61,20.87.34.34a8.72,8.72,0,0,0,1.29,1c4.48,3,6.64,6.59,3.59,15.33-3.79,10.87-18.13,9.67-22.84,9.28-4.19-.35-14.17-3.73-30.11-9.26-9.94-3.45-21.23-7.32-24.9-8-6.47-1.13-67.55-6.52-102.21-9.52-7.41,19.21-17.87,36.82-29.7,49.91-12.17,13.48-24.65,20.78-34.17,20.1l-9.06-.66,5.24-7.42c8.86-12.53,15-46.67,6.36-70.09-28.26-4.5-185.25-20.14-309.48,159.32,9.72,8.52,19.51,17.36,24.9,27.26,6.88,12.64,5.45,25.28-4.25,37.55Z"/></g></svg>